<svg xmlns="http://www.w3.org/2000/svg" viewBox="0 0 75 75"><defs><style>.cls-1{fill:#462d77;}.cls-2{fill:#2c2c2d;}.cls-3{fill:#f0eff4;}</style></defs><title>cardio</title><g id="Calque_2" data-name="Calque 2"><g id="Calque_1-2" data-name="Calque 1"><circle class="cls-1" cx="37.5" cy="37.5" r="37.5"/><path class="cls-2" d="M50.43,28.65c0,6.39-4.29,7.7-7.22,17.85a43.43,43.43,0,0,0-1,4.3h0c-.4,2.27-.43,3.49-.84,3.78-.5-.08-.89-1.2-2-3.17a38.61,38.61,0,0,0-2.23-3.64C31.38,39.48,27,40,25,34c-1.2-3.69-1.31-9.4,1.57-11.84,2.26-1.92,5.8-1.38,8,.34a8.1,8.1,0,0,1,2.12,2.54A9.42,9.42,0,0,1,38,21.83c1.57-2.54,4.72-4.48,7.41-3.63C48.81,19.32,50.44,24.69,50.43,28.65Z"/><path d="M20,51.57c2-.44,2.67.75,5.68,1.54,2.39.63,2.94.13,10,0,2.24,0,1.5,0,5.68,0,10.6,0,11.85-.45,12.79-1.54.71-.82,1-3.11,1.42-7.68.5-4.8-.82-5.71,0-9.22.12-.5.32-1.24,0-1.53-.95-.89-5.68,3.07-5.68,3.07s-5.9.06-8.53,0C30.05,36,22.33,32.48,21.37,34.67c-.05.11,0,.11,0,1.54V47c0,1.54-.36,3.13,0,4.61.1.42.33,1.22,0,1.54s-.53,0-1.42,0-1.19.22-1.42,0-.08-1.29,0-1.54,0-2.19,0-6.14c-.06-5.32-.6-6.26,0-9.22.37-1.87.82-2.62,1.42-3.07,1.45-1.1,3.59-.25,4.26,0,5.36,2,25.39,4.9,32.68-3.08,2.29-2.5,3.75-6.55,5.69-6.14A1.91,1.91,0,0,1,64,25.46c.08,1-1.21,1.62-4.27,4.6a8.69,8.69,0,0,0-1.42,1.54c-1.12,2-.45,4.41,0,6.15,2.38,9.07.9,6.07,2.84,12.29,1.46,4.65,2.28,6.3,1.43,7.68-1,1.58-3.38,1.54-4.27,1.54-14-.1-48.07,4-48.31,0,0-.73,1.12-.64,5.68-4.61C18,52.67,18.55,51.89,20,51.57Z"/><path class="cls-3" d="M22.44,33.91c5.19-1.1,7.19,1.67,9.16,0,0,0,.91-.79,2.29-10h0C36.72,41.1,37.32,41,37.32,41c.7-.07,2-6,1.15-10-.07-.31-.27-1.2,0-1.42.45-.39,1.67,1.59,3.43,2.85,1.44,1,2.87,1.16,5.73,1.43,4.17.38,6.51.6,8,0,.2-.09.83-.36,1.14,0a1.27,1.27,0,0,1,0,1.42c-.28.33-.81.11-1.14,0-.8-.26-.72,0-3.43,0-5.52,0-8.28,0-10.31-1.42-1.26-.89-1.77-1.74-2.29-1.43-.91.55-.14,3.67-1.14,8.56-.56,2.69-1,2.83-1.15,2.85-1,.16-2.19-3.93-2.29-4.28-1.05-3.74-.81-7.11-1.14-7.13s-.16,1.92-1.15,2.85-2.55.31-3.43,0c-5.28-1.82-10.24.57-10.31,0C19,35,20.69,34.27,22.44,33.91Z"/></g></g></svg>