<svg xmlns="http://www.w3.org/2000/svg" viewBox="0 0 666 728"><defs><style>.cls-1{fill:#462d77;}.cls-2,.cls-3{fill:#fff;}.cls-3{stroke:#000;stroke-miterlimit:10;}.cls-4{font-size:14px;font-family:MyriadPro-Regular, Myriad Pro;}</style></defs><title>designhorloge</title><g id="Calque_2" data-name="Calque 2"><g id="Calque_1-2" data-name="Calque 1"><ellipse class="cls-1" cx="333" cy="364" rx="333" ry="364"/><rect x="120.17" y="221.06" width="426.24" height="285.04" rx="12" ry="12"/><rect class="cls-2" x="131.21" y="236.96" width="403.27" height="249.95"/><polygon points="333.29 487.64 400.75 602.76 265.84 602.76 333.29 487.64"/><ellipse class="cls-3" cx="328" cy="361" rx="117.5" ry="121.5"/><path d="M331.41,287.39c7.45,7.41,4.12,19.49,3.45,41-.67,21.72,1.9,35.83,0,35.42-1.49-.31-4-9.07-5.09-13.77-2.68-11.31-1.84-17.46-1.82-27.57,0-22.8-4.2-37.35,0-37.28C329.23,285.22,330.66,286.65,331.41,287.39Z"/><path d="M328,282.33c-1.58-.29-1.86,1.26-2.45.94-1.8-1-3.51-17.34,5.13-20.56,2.19-.81,5-.76,5.4-.09.57.88-3.49,1.8-3.65,5.52-.13,2.73,2,3.73,3.4,8.67.9,3.21.77,5.51.56,9.23-.06,1.19-.29,5.12-1.13,4.9-.47-.13-.62-1.4-1.85-3.44C333.25,287.29,330.49,282.78,328,282.33Z"/><path d="M283.24,391.52c3.4-2.11,6.36-5.06,9.73-7.24,5.51-3.57,10.83-7.5,16.29-11.17,18-12.08,22.59-15.35,25.47-13a6.1,6.1,0,0,1,1.86,4c1.32,9.07-14.11,18.35-18.54,16.85-.16-.06-2-.69-2-1.26,0-.23.32-.24,1.05-.72,1-.67,1.27-1.19,1.72-1.07s.31.33.66.41a1.3,1.3,0,0,0,1-.33c1.55-1.19,3.29-2,4.85-3.24,1.93-1.48,2.18-1.56,3.82-2.9a13.52,13.52,0,0,0,2.16-1.91c-.09-.16-2.86,1.64-5.94,3.66-7.73,5.06-11.6,7.59-13.51,9-4.42,3.23-7.5,5.88-10.8,8.73-3,2.59-12.62,11.05-17.29,10.73-.34,0-1.13-.12-2.35-.11-3.16,0-4.35.76-4.73.15s.63-1.48,2.59-5.67a12.92,12.92,0,0,1,1.46-2.63A8.77,8.77,0,0,1,283.24,391.52Z"/><path d="M282.42,403.45c.23.76-3.32,3.36-7.7,5-5.36,2-11.22,2.39-11.44,1.36-.25-1.2,7-4.31,7-4.25s-7.18,4.16-7.47,3.6,5.46-5.37,7.69-7.26c.62-.53,1.71-1.84,3.4-3.41,1.29-1.21,4.07-3.8,4.45-3.38.17.18-.22.88-1.85,4.15-1.5,3-1.66,3.41-1.5,3.79C275.74,404.87,282.11,402.47,282.42,403.45Z"/><text class="cls-4" transform="translate(315.53 258.7) rotate(-6.2)"> </text><text class="cls-4" transform="translate(318.4 258.39) rotate(-4.4)"> </text><text class="cls-4" transform="matrix(1, -0.02, 0.02, 1, 321.22, 258.11)">1</text><text class="cls-4" transform="translate(328.21 257.94) rotate(2.96)">2</text><text class="cls-4" transform="translate(335.27 258.36) rotate(6.05)"> </text><text class="cls-4" transform="matrix(0.99, 0.14, -0.14, 0.99, 338.15, 258.66)"> </text><text class="cls-4" transform="translate(341.02 259.06) rotate(9.67)"> </text><text class="cls-4" transform="translate(343.87 259.54) rotate(11.48)"> </text><text class="cls-4" transform="translate(346.69 260.11) rotate(13.28)"> </text><text class="cls-4" transform="matrix(0.97, 0.26, -0.26, 0.97, 349.52, 260.78)"> </text><text class="cls-4" transform="translate(352.31 261.53) rotate(16.9)"> </text><text class="cls-4" transform="translate(355.08 262.37) rotate(18.7)"> </text><text class="cls-4" transform="matrix(0.94, 0.35, -0.35, 0.94, 357.81, 263.29)"> </text><text class="cls-4" transform="matrix(0.93, 0.38, -0.38, 0.93, 360.52, 264.3)"> </text><text class="cls-4" transform="translate(363.2 265.4) rotate(24.05)"> </text><text class="cls-4" transform="translate(365.85 266.58) rotate(25.83)"> </text><text class="cls-4" transform="translate(368.45 267.84) rotate(27.58)"> </text><text class="cls-4" transform="matrix(0.87, 0.49, -0.49, 0.87, 371.01, 269.17)"> </text><text class="cls-4" transform="translate(373.54 270.59) rotate(31.07)"> </text><text class="cls-4" transform="matrix(0.84, 0.54, -0.54, 0.84, 376.02, 272.09)"> </text><text class="cls-4" transform="translate(378.46 273.66) rotate(34.53)"> </text><text class="cls-4" transform="matrix(0.81, 0.59, -0.59, 0.81, 380.85, 275.3)"> </text><text class="cls-4" transform="matrix(0.79, 0.61, -0.61, 0.79, 383.18, 277.01)"> </text><text class="cls-4" transform="translate(385.46 278.78) rotate(39.63)"> </text><text class="cls-4" transform="translate(387.7 280.64) rotate(41.31)"> </text><text class="cls-4" transform="matrix(0.73, 0.68, -0.68, 0.73, 389.87, 282.55)"> </text><text class="cls-4" transform="matrix(0.71, 0.7, -0.7, 0.71, 391.99, 284.52)"> </text><text class="cls-4" transform="translate(394.05 286.55) rotate(46.29)"> </text><text class="cls-4" transform="matrix(0.67, 0.74, -0.74, 0.67, 396.07, 288.67)"> </text><text class="cls-4" transform="matrix(0.65, 0.76, -0.76, 0.65, 398.01, 290.82)"> </text><text class="cls-4" transform="matrix(0.63, 0.78, -0.78, 0.63, 399.89, 293.02)"> </text><text class="cls-4" transform="translate(401.71 295.29) rotate(52.84)"> </text><text class="cls-4" transform="translate(403.45 297.58) rotate(54.44)"> </text><text class="cls-4" transform="matrix(0.56, 0.83, -0.83, 0.56, 405.15, 299.95)"> </text><text class="cls-4" transform="matrix(0.53, 0.84, -0.84, 0.53, 406.76, 302.35)"> </text><text class="cls-4" transform="matrix(0.51, 0.86, -0.86, 0.51, 408.31, 304.8)"> </text><text class="cls-4" transform="translate(409.8 307.29) rotate(60.85)"> </text><text class="cls-4" transform="translate(411.22 309.84) rotate(62.44)"> </text><text class="cls-4" transform="matrix(0.44, 0.9, -0.9, 0.44, 412.55, 312.39)"> </text><text class="cls-4" transform="translate(413.83 315.01) rotate(65.6)"> </text><text class="cls-4" transform="translate(415.03 317.65) rotate(67.18)"> </text><text class="cls-4" transform="matrix(0.36, 0.93, -0.93, 0.36, 416.15, 320.32)"> </text><text class="cls-4" transform="translate(417.21 323.04) rotate(70.32)"> </text><text class="cls-4" transform="translate(418.19 325.77) rotate(71.88)"> </text><text class="cls-4" transform="translate(419.09 328.53) rotate(73.44)"> </text><text class="cls-4" transform="matrix(0.26, 0.97, -0.97, 0.26, 419.92, 331.29)"> </text><text class="cls-4" transform="translate(420.67 334.12) rotate(76.55)"> </text><text class="cls-4" transform="matrix(0.21, 0.98, -0.98, 0.21, 421.35, 336.95)"> </text><text class="cls-4" transform="translate(421.95 339.77) rotate(79.62)"> </text><text class="cls-4" transform="translate(422.47 342.63) rotate(81.16)"> </text><text class="cls-4" transform="translate(422.92 345.5) rotate(82.69)"> </text><text class="cls-4" transform="matrix(0.1, 0.99, -0.99, 0.1, 423.29, 348.38)"> </text><text class="cls-4" transform="matrix(0.07, 1, -1, 0.07, 423.58, 351.27)"> </text><text class="cls-4" transform="matrix(0.05, 1, -1, 0.05, 423.8, 354.18)"> </text><text class="cls-4" transform="translate(423.94 356.99) rotate(89.12)">3</text><text class="cls-4" transform="translate(423.97 364.1) rotate(92.36)"> </text><text class="cls-4" transform="translate(423.85 366.99) rotate(93.86)"> </text><text class="cls-4" transform="translate(423.65 369.89) rotate(95.38)"> </text><text class="cls-4" transform="translate(423.38 372.79) rotate(96.9)"> </text><text class="cls-4" transform="translate(423.03 375.68) rotate(98.43)"> </text><text class="cls-4" transform="matrix(-0.17, 0.98, -0.98, -0.17, 422.61, 378.54)"> </text><text class="cls-4" transform="translate(422.11 381.4) rotate(101.5)"> </text><text class="cls-4" transform="translate(421.53 384.25) rotate(103.05)"> </text><text class="cls-4" transform="translate(420.88 387.07) rotate(104.59)"> </text><text class="cls-4" transform="translate(420.14 389.9) rotate(106.16)"> </text><text class="cls-4" transform="matrix(-0.3, 0.95, -0.95, -0.3, 419.34, 392.68)"> </text><text class="cls-4" transform="translate(418.45 395.46) rotate(109.28)"> </text><text class="cls-4" transform="translate(417.5 398.18) rotate(110.84)"> </text><text class="cls-4" transform="translate(416.46 400.91) rotate(112.41)"> </text><text class="cls-4" transform="translate(415.35 403.59) rotate(113.99)"> </text><text class="cls-4" transform="translate(414.18 406.24) rotate(115.56)"> </text><text class="cls-4" transform="matrix(-0.46, 0.89, -0.89, -0.46, 412.94, 408.84)"> </text><text class="cls-4" transform="translate(411.61 411.44) rotate(118.73)"> </text><text class="cls-4" transform="matrix(-0.5, 0.86, -0.86, -0.5, 410.21, 413.99)"> </text><text class="cls-4" transform="translate(408.75 416.49) rotate(121.92)"> </text><text class="cls-4" transform="matrix(-0.55, 0.83, -0.83, -0.55, 407.22, 418.95)"> </text><text class="cls-4" transform="translate(405.62 421.37) rotate(125.13)"> </text><text class="cls-4" transform="translate(403.95 423.74) rotate(126.74)"> </text><text class="cls-4" transform="matrix(-0.62, 0.78, -0.78, -0.62, 402.21, 426.07)"> </text><text class="cls-4" transform="matrix(-0.64, 0.77, -0.77, -0.64, 400.41, 428.34)"> </text><text class="cls-4" transform="matrix(-0.66, 0.75, -0.75, -0.66, 398.55, 430.56)"> </text><text class="cls-4" transform="matrix(-0.69, 0.73, -0.73, -0.69, 396.63, 432.72)"> </text><text class="cls-4" transform="matrix(-0.71, 0.71, -0.71, -0.71, 394.64, 434.84)"> </text><text class="cls-4" transform="matrix(-0.73, 0.69, -0.69, -0.73, 392.6, 436.89)"> </text><text class="cls-4" transform="matrix(-0.75, 0.67, -0.67, -0.75, 390.49, 438.89)"> </text><text class="cls-4" transform="translate(388.34 440.81) rotate(139.92)"> </text><text class="cls-4" transform="translate(386.11 442.69) rotate(141.61)"> </text><text class="cls-4" transform="matrix(-0.8, 0.6, -0.6, -0.8, 383.84, 444.49)"> </text><text class="cls-4" transform="matrix(-0.82, 0.57, -0.57, -0.82, 381.52, 446.21)"> </text><text class="cls-4" transform="translate(379.16 447.87) rotate(146.73)"> </text><text class="cls-4" transform="matrix(-0.85, 0.52, -0.52, -0.85, 376.74, 449.46)"> </text><text class="cls-4" transform="matrix(-0.87, 0.5, -0.5, -0.87, 374.27, 450.98)"> </text><text class="cls-4" transform="translate(371.75 452.42) rotate(151.96)"> </text><text class="cls-4" transform="translate(369.19 453.79) rotate(153.72)"> </text><text class="cls-4" transform="translate(366.62 455.06) rotate(155.47)"> </text><text class="cls-4" transform="translate(363.97 456.27) rotate(157.26)"> </text><text class="cls-4" transform="translate(361.32 457.38) rotate(159.03)"> </text><text class="cls-4" transform="translate(358.59 458.43) rotate(160.84)"> </text><text class="cls-4" transform="translate(355.87 459.37) rotate(162.63)"> </text><text class="cls-4" transform="matrix(-0.96, 0.27, -0.27, -0.96, 353.11, 460.24)"> </text><text class="cls-4" transform="translate(350.33 461.01) rotate(166.24)"> </text><text class="cls-4" transform="matrix(-0.98, 0.21, -0.21, -0.98, 347.52, 461.7)"> </text><text class="cls-4" transform="matrix(-0.98, 0.18, -0.18, -0.98, 344.7, 462.3)"> </text><text class="cls-4" transform="matrix(-0.99, 0.14, -0.14, -0.99, 341.84, 462.81)"> </text><text class="cls-4" transform="translate(338.96 463.24) rotate(173.49)"> </text><text class="cls-4" transform="translate(336.1 463.57) rotate(175.28)"> </text><text class="cls-4" transform="matrix(-1, 0.03, -0.03, -1, 333.29, 463.86)">9</text><text class="cls-4" transform="translate(326.21 464.01) rotate(-178.6)"> </text><text class="cls-4" transform="matrix(-1, -0.06, 0.06, -1, 323.34, 463.94)"> </text><text class="cls-4" transform="translate(320.44 463.78) rotate(-175.02)"> </text><text class="cls-4" transform="matrix(-0.99, -0.12, 0.12, -0.99, 317.56, 463.53)"> </text><text class="cls-4" transform="translate(314.67 463.19) rotate(-171.4)"> </text><text class="cls-4" transform="matrix(-0.98, -0.18, 0.18, -0.98, 311.83, 462.76)"> </text><text class="cls-4" transform="translate(308.98 462.24) rotate(-167.79)"> </text><text class="cls-4" transform="translate(306.17 461.63) rotate(-165.99)"> </text><text class="cls-4" transform="matrix(-0.96, -0.27, 0.27, -0.96, 303.35, 460.93)"> </text><text class="cls-4" transform="translate(300.57 460.14) rotate(-162.38)"> </text><text class="cls-4" transform="matrix(-0.94, -0.33, 0.33, -0.94, 297.82, 459.27)"> </text><text class="cls-4" transform="translate(295.07 458.3) rotate(-158.78)"> </text><text class="cls-4" transform="translate(292.39 457.26) rotate(-157)"> </text><text class="cls-4" transform="translate(289.71 456.13) rotate(-155.22)"> </text><text class="cls-4" transform="translate(287.1 454.93) rotate(-153.47)"> </text><text class="cls-4" transform="translate(284.51 453.63) rotate(-151.71)"> </text><text class="cls-4" transform="translate(281.95 452.26) rotate(-149.96)"> </text><text class="cls-4" transform="matrix(-0.85, -0.53, 0.53, -0.85, 279.44, 450.8)"> </text><text class="cls-4" transform="translate(276.97 449.28) rotate(-146.48)"> </text><text class="cls-4" transform="matrix(-0.82, -0.58, 0.58, -0.82, 274.57, 447.69)"> </text><text class="cls-4" transform="translate(272.21 446.02) rotate(-143.07)"> </text><text class="cls-4" transform="matrix(-0.78, -0.62, 0.62, -0.78, 269.89, 444.28)"> </text><text class="cls-4" transform="translate(267.62 442.46) rotate(-139.68)"> </text><text class="cls-4" transform="translate(265.41 440.59) rotate(-138.01)"> </text><text class="cls-4" transform="translate(263.26 438.66) rotate(-136.34)"> </text><text class="cls-4" transform="translate(261.16 436.65) rotate(-134.68)"> </text><text class="cls-4" transform="translate(259.12 434.59) rotate(-133.03)"> </text><text class="cls-4" transform="matrix(-0.66, -0.75, 0.75, -0.66, 257.14, 432.48)"> </text><text class="cls-4" transform="matrix(-0.64, -0.77, 0.77, -0.64, 255.23, 430.3)"> </text><text class="cls-4" transform="matrix(-0.62, -0.79, 0.79, -0.62, 253.37, 428.07)"> </text><text class="cls-4" transform="matrix(-0.59, -0.8, 0.8, -0.59, 251.57, 425.78)"> </text><text class="cls-4" transform="matrix(-0.57, -0.82, 0.82, -0.57, 249.85, 423.46)"> </text><text class="cls-4" transform="matrix(-0.55, -0.84, 0.84, -0.55, 248.19, 421.08)"> </text><text class="cls-4" transform="matrix(-0.53, -0.85, 0.85, -0.53, 246.6, 418.66)"> </text><text class="cls-4" transform="matrix(-0.5, -0.87, 0.87, -0.5, 245.07, 416.19)"> </text><text class="cls-4" transform="translate(243.61 413.67) rotate(-118.5)"> </text><text class="cls-4" transform="translate(242.23 411.13) rotate(-116.91)"> </text><text class="cls-4" transform="matrix(-0.43, -0.9, 0.9, -0.43, 240.91, 408.54)"> </text><text class="cls-4" transform="matrix(-0.4, -0.92, 0.92, -0.4, 239.67, 405.92)"> </text><text class="cls-4" transform="translate(238.5 403.26) rotate(-112.18)"> </text><text class="cls-4" transform="matrix(-0.35, -0.94, 0.94, -0.35, 237.41, 400.58)"> </text><text class="cls-4" transform="matrix(-0.33, -0.95, 0.95, -0.33, 236.38, 397.85)"> </text><text class="cls-4" transform="translate(235.44 395.11) rotate(-107.49)"> </text><text class="cls-4" transform="translate(234.56 392.34) rotate(-105.93)"> </text><text class="cls-4" transform="translate(233.77 389.56) rotate(-104.38)"> </text><text class="cls-4" transform="translate(233.04 386.74) rotate(-102.83)"> </text><text class="cls-4" transform="translate(232.4 383.92) rotate(-101.29)"> </text><text class="cls-4" transform="translate(231.83 381.05) rotate(-99.74)"> </text><text class="cls-4" transform="translate(231.34 378.19) rotate(-98.21)"> </text><text class="cls-4" transform="translate(230.92 375.33) rotate(-96.69)"> </text><text class="cls-4" transform="matrix(-0.09, -1, 1, -0.09, 230.58, 372.44)"> </text><text class="cls-4" transform="translate(230.32 369.55) rotate(-93.65)"> </text><text class="cls-4" transform="translate(230.13 366.65) rotate(-92.15)"> </text><text class="cls-4" transform="translate(229.95 363.8) rotate(-89.13)">9</text></g></g></svg>