<?xml version="1.0" encoding="utf-8"?>
<!-- Generator: Adobe Illustrator 22.1.0, SVG Export Plug-In . SVG Version: 6.00 Build 0)  -->
<svg version="1.1" id="Calque_1" focusable="false" xmlns="http://www.w3.org/2000/svg" xmlns:xlink="http://www.w3.org/1999/xlink"
	 x="0px" y="0px" viewBox="0 0 1 1" style="enable-background:new 0 0 1 1;" xml:space="preserve">
<style type="text/css">
	.st0{fill:#7451EB;}
</style>
<path class="st0" d="M0.5,0.1c0.2,0,0.4,0.2,0.4,0.4c0,0.2-0.2,0.4-0.4,0.4S0.1,0.7,0.1,0.5S0.3,0.1,0.5,0.1 M0.5,0
	C0.2,0,0,0.2,0,0.5S0.2,1,0.5,1S1,0.8,1,0.5S0.8,0,0.5,0z M0.6,0.5C0.6,0.5,0.6,0.6,0.6,0.5c-0.1,0.1-0.2,0.1-0.2,0S0.5,0.4,0.6,0.5
	C0.6,0.4,0.6,0.4,0.6,0.5z"/>
</svg>
