<svg xmlns="http://www.w3.org/2000/svg" viewBox="0 0 75 75"><defs><style>.cls-1{fill:#462d77;}.cls-2,.cls-3{fill:#fff;}.cls-3{stroke:#000;stroke-miterlimit:10;}.cls-4{font-size:3px;font-family:MyriadPro-Regular, Myriad Pro;}</style></defs><title>horloge</title><g id="Calque_2" data-name="Calque 2"><g id="Calque_1-2" data-name="Calque 1"><circle class="cls-1" cx="37.5" cy="37.5" r="37.5"/><rect x="7.5" y="20.5" width="57" height="34" rx="2.88" ry="2.88"/><rect class="cls-2" x="9.5" y="22.5" width="53" height="30"/><polygon points="36 52.95 45.34 65.5 26.66 65.5 36 52.95"/><ellipse class="cls-3" cx="35.94" cy="37.19" rx="13.23" ry="12.52"/><path d="M36.35,30.2c.78.7.43,1.86.36,3.91s.2,3.41,0,3.37-.41-.86-.53-1.31A8.58,8.58,0,0,1,36,33.54c0-2.17-.44-3.56,0-3.55C36.12,30,36.27,30.13,36.35,30.2Z"/><path d="M36,29.72c-.16,0-.19.12-.25.09s-.37-1.66.53-2c.23-.08.52-.08.56,0s-.36.17-.38.52.21.36.36.83a2.33,2.33,0,0,1,.06.88c0,.11,0,.49-.12.47s-.07-.14-.19-.33C36.54,30.19,36.26,29.76,36,29.72Z"/><path d="M32.3,39.86c.29-.18.56-.44.85-.62.48-.31,1-.64,1.43-1,1.58-1,2-1.31,2.22-1.1a.56.56,0,0,1,.16.36c.09.81-1.26,1.6-1.64,1.45,0,0-.17-.06-.17-.11s0,0,.1-.06.11-.11.15-.1,0,0,.05,0a.11.11,0,0,0,.09,0c.14-.11.29-.18.43-.28s.19-.13.33-.25a1,1,0,0,0,.19-.16,3,3,0,0,0-.52.31l-1.18.77a10.53,10.53,0,0,0-.95.75c-.26.22-1.11.95-1.51.91h-.21c-.27,0-.37,0-.4,0s.05-.13.23-.5a1,1,0,0,1,.13-.23A.72.72,0,0,1,32.3,39.86Z"/><path d="M32.2,40.92c0,.07-.29.29-.67.43s-1,.19-1,.09.61-.36.61-.36a2.77,2.77,0,0,1-.65.31,4,4,0,0,1,.68-.63l.3-.3c.11-.1.36-.33.39-.29s0,.08-.17.37-.15.3-.14.33S32.18,40.83,32.2,40.92Z"/><text class="cls-4" transform="translate(35.5 27.46) scale(0.74 1)">12</text><text class="cls-4" transform="translate(46.69 37.29) scale(0.59 1)">3</text><text class="cls-4" transform="translate(35.69 48.29) scale(0.59 1)">6</text><text class="cls-4" transform="translate(23.69 37.29) scale(0.59 1)">9</text></g></g></svg>