<svg xmlns="http://www.w3.org/2000/svg" viewBox="0 0 75 75"><defs><style>.cls-1{fill:#462d77;}.cls-2{fill:#333232;}.cls-3{fill:#226005;stroke:#000;stroke-miterlimit:10;stroke-width:0.25px;}.cls-4{fill:#340fed;}.cls-5{fill:#27af3a;}.cls-6{fill:#fcf500;}.cls-7{fill:#f90000;}</style></defs><title>iconemanette</title><g id="Calque_2" data-name="Calque 2"><g id="Calque_1-2" data-name="Calque 1"><circle class="cls-1" cx="37.5" cy="37.5" r="37.5"/><path d="M26.49,24c2.68.31,6.28.67,10.57.94,9.12.57,10.52.07,11.45-.94,3.14-3.42-1.19-10.57,1.26-12.52,2.15-1.72,8.32,1.51,12.08,6.27C70.58,28.79,65.69,46,65.14,47.85,62.38,57.13,55.83,66.62,52,65.42c-2.66-.82-4.07-6.71-4.4-10-.55-5.59,1.52-8.34,0-10-1.08-1.21-2.42-.12-9.88,0-1.68,0-3.66,0-4.39,0-6.09-.06-6.12-.33-6.59,0-3.84,2.65,1.86,16.92-2.2,20.08-1.39,1.08-3.31.39-4.39,0C12.36,62.63,7.53,48.59,8,36.56c.38-9,3.92-20.67,11-23.84.53-.24,4.53-2,6.59,0,1.12,1.11,1.15,3.2,1.1,7.53C26.69,21.78,26.59,23.06,26.49,24Z"/><path class="cls-2" d="M26.49,25.86c-.19.09.06.64,0,1.87,0,1.08-.28,1.62,0,1.86s.33.06.88,0c.22,0,.73,0,1.76,0,1.4,0,1.73.12,1.77,0s-1.28-.58-2.65-1.86C27.18,26.72,26.75,25.73,26.49,25.86Z"/><path class="cls-2" d="M48.51,25.86c.19.09,0,.64,0,1.87s.26,1.61,0,1.86-.44,0-1.76,0h-.88c-1.36,0-1.73.12-1.77,0s1.29-.59,2.65-1.86C47.82,26.72,48.25,25.73,48.51,25.86Z"/><path class="cls-2" d="M37.94,30.53c1.2,0,1.56-.25,1.76,0s-.29,1.09-.88,2.8-.61,2.8-.88,2.8-.27-1-.88-2.8-1.17-2.44-.88-2.8S36.74,30.53,37.94,30.53Z"/><ellipse class="cls-2" cx="28.69" cy="39.4" rx="4.84" ry="5.13"/><path d="M28.25,35.2a.66.66,0,0,1,.88,0c.18.2.09.53,0,.93-.12.6-.5,2.43,0,2.8.1.07.13,0,.88,0h.89c1.22,0,1.54-.24,1.76,0a.81.81,0,0,1,0,.93c-.15.19-.45.3-2.65,0-.62-.08-.75-.11-.88,0-.49.43-.14,2.1,0,2.8.08.39.18.77,0,.94s-.32,0-.88,0-.73.13-.88,0-.08-.62,0-.94c.49-1.79,1.11-2.46.88-2.8-.12-.19-.67-.13-1.76,0s-1.53.27-1.76,0a.8.8,0,0,1,0-.93c.21-.25.58-.15,1.76,0,1.46.18,1.64.13,1.76,0s.18-.33,0-1.87C28.11,35.8,28,35.42,28.25,35.2Z"/><ellipse class="cls-3" cx="17.69" cy="25.86" rx="4.4" ry="4.67"/><ellipse cx="17.75" cy="25.84" rx="2.78" ry="2.64" transform="translate(-8.43 43.07) rotate(-88.87)"/><ellipse class="cls-3" cx="48.51" cy="38.93" rx="4.4" ry="4.67"/><ellipse cx="48.57" cy="38.9" rx="2.78" ry="2.64" transform="translate(8.72 86.7) rotate(-88.87)"/><ellipse class="cls-4" cx="54.23" cy="26.33" rx="1.32" ry="1.4"/><ellipse class="cls-5" cx="57.75" cy="30.06" rx="1.32" ry="1.4"/><ellipse class="cls-6" cx="57.75" cy="22.59" rx="1.32" ry="1.4"/><ellipse class="cls-7" cx="61.28" cy="26.33" rx="1.32" ry="1.4"/></g></g></svg>