<svg xmlns="http://www.w3.org/2000/svg" viewBox="0 0 666 728"><defs><style>.cls-1{fill:#462d77;}.cls-2{fill:#fff;}</style></defs><title>Fichier 1</title><g id="Calque_2" data-name="Calque 2"><g id="Calque_1-2" data-name="Calque 1"><ellipse class="cls-1" cx="333" cy="364" rx="333" ry="364"/><rect x="114.17" y="175.06" width="426.24" height="285.04" rx="12" ry="12"/><rect class="cls-2" x="125.9" y="189.84" width="403.27" height="249.95"/><polygon points="327.29 441.64 394.75 556.76 259.84 556.76 327.29 441.64"/><path d="M371.28,360.37c-.15-24.22,28.58-38.56,69.9-72.64,41.71-34.4,63.17-61.64,66-57.87,2.2,2.93-9.46,21.27-16.13,30.78-16,22.85-29.06,31.53-47.9,48-42.53,37.21-61.7,67.87-69.41,60.95C371.33,367.45,371.3,362.79,371.28,360.37Z"/><path d="M371.28,370.22c2.44,3,5.84,1,6.36,2.47,1.55,4.49-25.72,34-47.9,25.24-5.61-2.22-10.7-6.81-10.27-8.62.56-2.37,9.87,2.73,17.11-3.08,5.32-4.27,3.2-9.37,9.77-19.7,4.28-6.72,8.82-10.27,16.14-16,2.33-1.83,10.06-7.89,11.24-6.15.65,1-1.43,3.29-2.93,8.61C370.64,353.52,367.41,365.39,371.28,370.22Z"/><path d="M170.87,351.14c-2,3.63,11,13.06,15.16,29.55,3,11.82,1.62,27.09-4.4,31.4-2.12,1.51-5.52,1-12.22,0a87.7,87.7,0,0,1-15.16-3.7c-.07.32,39.2,29.31,62.57,11.7,12.56-9.46,21-32.74,15.64-51.71-6.43-22.65-29.11-26.84-37.15-28.32-2.93-.55-23.62-4-38.12,11.69-3.09,3.34-4.9,6.47-4.4,7.39,1.32,2.45,17.56-13.06,35.58-9.69,1,.2,1.95.43,2.06.46,3.56.91,15,3.84,21.5,15.39,1,1.76,8.7,15.83,3.42,28.93-2.9,7.21-9.88,14.51-14.17,12.32-9.36-4.78-1.28-52.67-10.75-56.64a30.17,30.17,0,0,0-9.29-1.23,23.12,23.12,0,0,0-5.38.61C172.79,350,171.31,350.34,170.87,351.14Z"/><path d="M250.55,371.45l-1-1.23c-1.56-2-1.73-2.14-1.95-2.46a10.26,10.26,0,0,1-1.47-4.31,19.78,19.78,0,0,1,.49-8.62c.14-.51,2.33-7.92,8.31-10.46,3.44-1.47,7.82-1.18,8.31.61.23.85-.51,1.72-2.94,4.93-5.89,7.78-4.7,6.86-6.35,8.62-2.29,2.43-4.21,5.36-6.35,8a1.69,1.69,0,0,0-.49,1.23,1,1,0,0,0,.49.62,16.19,16.19,0,0,1,2.93,3.07c.46.57.39.57.49.62,1.51.79,4.51-6.52,9.28-13.54,5.56-8.18,8.21-8.17,8.31-11.7.17-5.85-6.59-12.56-13.19-12.93-9.9-.55-15.82,13.39-16.13,14.16-5,12.1-2.11,28.58,6.35,38.17,6,6.83,15.07,10.35,23.46,7.39,15.73-5.55,21.05-30.74,19.07-32.63-1.67-1.59-8.38,13.45-21.51,15.39C258.05,377.65,251.43,372.56,250.55,371.45Z"/><path d="M295.52,302.5c-4,2.4-19.89,12-18.09,24.63,1.05,7.34,7.83,14.16,14.18,14.16,8.92,0,12.73-13.48,19.06-11.08,3.4,1.28,6.5,6.76,6.36,11.69a11.37,11.37,0,0,1-1,4.31c-4.39,9.25-22.23,2.63-23.95,8.62-.93,3.21,3.23,8.39,3.91,9.24a12.93,12.93,0,0,0,4.4,3.69,10.79,10.79,0,0,0,7.33.62c12.55-2.6,17.6-15.4,17.6-15.4,4.67-11.83,2.2-28.25-5.38-33.86-4.14-3.05-8.84-2.19-10.75-1.84-10.64,1.94-16,13.73-19.56,11.08-1.17-.87-1.61-2.92-1.46-4.31.2-1.93,1.67-3.94,11.24-8.62,7.11-3.48,9-3.68,9.29-5.54.53-3.22-4.14-8.39-8.8-8.62A7.82,7.82,0,0,0,295.52,302.5Z"/><path d="M326.8,295.73c3.07,12.55,19.2,38.65,23.47,35.09,3.14-2.63-.7-21-9.78-31.4-4.48-5.12-11.89-10.2-13.69-8C326.2,292.16,326.3,293.66,326.8,295.73Z"/><path d="M319,282.8c4.19-2.57,6.26-9.09,4.89-13.54-2.12-6.92-12.49-8.88-16.13-3.08-2.6,4.14-1.85,12.37,2.44,16A7.41,7.41,0,0,0,319,282.8Z"/><path d="M376.66,272.34c-.1.13-3.69-7-7.82-7.39-6.75-.71-15.94,13-14.66,26.47A24.88,24.88,0,0,0,371.77,313c8.73,2.31,15.64-3,18.09-4.93,6.58-5.07,11.58-13.82,10.26-16.62a11.06,11.06,0,0,0-1.46-1.85c-1.21-1.38-1.76-1.71-2.94-3.07s-1.13-1.68-1.46-1.85c-2.44-1.29-6.07,11.29-13.2,14.16-5.06,2-11.92-.81-13.2-5.54-1.49-5.53,4.48-14.29,10.76-16,5.59-1.53,11.5,2.51,20.53,13.55,15.26,18.66,38.38,46.91,31.77,74.49-2.95,12.29-12.13,25.79-20.53,24.62-4.08-.56-7.55-4.59-9.29-8.62-5.49-12.74,4.21-30.61,3.91-30.78s-17.57,26.72-9.29,41.87c4.88,8.91,16.8,10,24.93,6.77,14.65-5.78,23.26-27.91,23.47-46.18.37-32.74-26.17-57.91-37.15-68.33-8.63-8.18-13.63-10.12-29.33-25.24C370,252,365.35,246.89,364,248.33c-1.92,2,3.94,14.69,6.36,17.23,1.48,1.57,2.44,2.47,2.44,2.47.9.84,1.26,1.11,2,1.84A13.17,13.17,0,0,1,376.66,272.34Z"/><path d="M409.9,271.1c-15-12.64-25.79-10.25-26.88-18.46-.49-3.69,1.16-8,3.42-9.86.91-.75,1.85-1,7.33-1.23,5.75-.19,8.71,0,8.8-.61.14-1-8.17-1.46-9.29-6.16-.89-3.74,2.92-9.65,7.33-11.08,2.9-.94,5.45.26,7.33,1.23,13.12,6.77,14.7,13.5,24,17.24,7.5,3,13.08,1.27,13.68,4.31.45,2.23-2.09,5.59-4.89,6.77-4.25,1.8-6.2-2.68-14.17-4.92,0,0-8-2.25-17.6,2.46-.94.46-2.37,1.26-2.44,2.46-.09,1.55,2.14,2.95,3.42,3.69,9.29,5.39,22.38,7.35,22.49,9.85,0,.78-1.22,1-5.38,3.7-4.86,3.19-5.39,4.4-7.33,4.92C415.86,276.45,412.44,273.24,409.9,271.1Z"/></g></g></svg>